<?xml version="1.0" standalone="no"?>
<!DOCTYPE svg PUBLIC "-//W3C//DTD SVG 20010904//EN"
 "http://www.w3.org/TR/2001/REC-SVG-20010904/DTD/svg10.dtd">
<svg version="1.0" xmlns="http://www.w3.org/2000/svg"
 width="700.000000pt" height="700.000000pt" viewBox="0 0 700.000000 700.000000"
 preserveAspectRatio="xMidYMid meet">
<metadata>
Created by potrace 1.14, written by Peter Selinger 2001-2017
</metadata>
<g transform="translate(0.000000,700.000000) scale(0.100000,-0.100000)"
fill="#000000" stroke="none">
<path d="M4658 6915 c-2 -1 -59 -6 -128 -10 -69 -4 -141 -8 -160 -10 -19 -2
-66 -6 -105 -9 -71 -7 -140 -14 -185 -21 -14 -2 -47 -7 -75 -10 -148 -19 -602
-106 -624 -120 -4 -2 -19 -6 -32 -8 -100 -19 -522 -149 -634 -197 -11 -5 -67
-27 -125 -50 -141 -56 -337 -150 -490 -233 -141 -78 -155 -86 -190 -108 -14
-9 -59 -38 -100 -65 -65 -41 -107 -70 -219 -151 -113 -82 -296 -239 -420 -363
-341 -338 -612 -742 -804 -1195 -49 -117 -138 -367 -152 -427 -2 -13 -14 -59
-25 -103 -24 -95 -26 -106 -45 -210 -40 -230 -53 -378 -61 -675 -5 -208 -9
-2790 -5 -2907 l1 -21 737 1 738 2 1 1505 1 1505 41 155 c126 480 310 862 578
1200 84 105 346 369 434 435 36 27 70 53 75 58 45 36 170 120 280 185 83 50
294 152 405 195 141 55 358 123 450 141 14 3 48 9 75 15 108 22 141 28 210 36
28 4 57 8 65 10 13 4 70 9 220 21 61 4 406 4 450 0 19 -2 69 -7 110 -10 143
-13 379 -51 391 -64 4 -4 10 -29 14 -56 3 -27 8 -53 10 -56 25 -41 25 -627 0
-745 -3 -11 -7 -40 -9 -65 -6 -55 -17 -124 -20 -128 -2 -1 -42 20 -89 48 -222
127 -445 203 -707 240 -102 14 -182 17 -440 15 -173 -2 -328 -5 -345 -9 -33
-7 -70 -13 -130 -21 -126 -18 -328 -86 -480 -160 -444 -217 -768 -627 -864
-1090 -11 -55 -24 -116 -28 -135 -9 -43 -16 -3220 -7 -3220 5 0 251 166 444
300 44 30 121 83 172 118 382 260 475 324 489 336 9 7 20 15 25 17 5 2 33 20
61 39 l53 35 1 990 c0 545 3 1007 5 1028 16 127 104 301 196 382 73 65 87 75
158 111 240 120 549 95 756 -62 78 -60 184 -177 184 -204 0 -12 -115 -60 -171
-70 -30 -6 -154 -11 -276 -11 l-223 0 0 -586 0 -585 173 5 c159 5 213 9 292
22 17 2 48 7 70 11 44 6 154 28 197 39 l28 7 2 -537 3 -537 590 0 c325 1 605
1 623 1 l32 1 0 891 0 891 58 66 c31 37 60 69 63 72 13 11 119 160 175 245 54
83 187 335 226 430 61 146 161 447 183 552 3 13 8 35 11 51 3 15 10 47 15 72
16 68 47 249 54 305 3 28 8 59 10 70 4 18 8 53 20 170 5 51 15 191 20 275 5
78 5 581 0 665 -6 122 -16 271 -20 305 -2 19 -7 73 -10 119 -4 47 -8 92 -10
102 -3 16 -14 112 -20 179 -1 14 -5 43 -8 65 -12 77 -20 130 -20 143 -1 28
-253 123 -512 195 -118 33 -254 63 -395 87 -30 6 -64 12 -76 14 -12 2 -45 7
-74 11 -29 4 -60 8 -69 10 -9 1 -45 6 -81 10 -36 3 -76 8 -90 10 -14 2 -61 7
-105 10 -44 4 -100 9 -125 11 -51 5 -687 13 -692 9z"/>
</g>
</svg>
