<svg xmlns="http://www.w3.org/2000/svg" width="25" height="25" fill="none"><g clip-path="url(#a)"><path fill="#fff" fill-rule="evenodd" d="M14.775.821a.923.923 0 0 1 1.02-.815c2.122.236 4.005 1.26 5.473 2.726 1.469 1.467 2.488 3.353 2.726 5.473a.923.923 0 1 1-1.834.206c-.186-1.65-.983-3.16-2.197-4.373-1.216-1.215-2.726-2.014-4.373-2.197a.923.923 0 0 1-.815-1.02Zm-7.411 1.34a1.307 1.307 0 0 0-.874-.315H3.15c-.737.001-1.364.683-1.298 1.418a.923.923 0 0 1 .004.083c-.008 10.527 8.196 18.806 18.792 18.798.028 0 .056.001.084.004.743.067 1.425-.567 1.422-1.3v-3.362a1.297 1.297 0 0 0-.308-.872c-.128-.15-.395-.35-.826-.556-.416-.2-.92-.376-1.452-.514-1.106-.288-2.13-.36-2.593-.26-.283.06-.582.245-.943.585-.177.167-.35.352-.536.555l-.078.085c-.158.173-.33.36-.5.53a.923.923 0 0 1-1.107.15 18.73 18.73 0 0 1-7.03-7.016.923.923 0 0 1 .15-1.11 16.275 16.275 0 0 1 .616-.577c.204-.186.39-.359.556-.535.34-.36.526-.658.587-.94M8.566.76c.432.37.764.902 1.018 1.432.26.545.473 1.164.633 1.778.307 1.184.467 2.54.277 3.428-.165.772-.623 1.37-1.05 1.822-.218.23-.447.442-.653.63l-.035.032a16.883 16.883 0 0 0 5.344 5.332l.034-.037c.188-.205.401-.434.631-.65.453-.427 1.052-.884 1.824-1.048.89-.19 2.253-.03 3.443.279.617.16 1.238.374 1.785.636.532.255 1.065.59 1.435 1.026.498.586.763 1.333.747 2.1v3.323c.007 1.8-1.577 3.285-3.389 3.148C9.02 23.981.02 14.896.009 3.385-.128 1.577 1.353.002 3.148 0h3.338a3.154 3.154 0 0 1 2.08.76ZM7.364 2.161c.15.13.349.398.554.828Zm.554.828c.199.415.374.917.512 1.445Zm.512 1.445c.286 1.1.357 2.117.259 2.578Zm5.74.62a.923.923 0 0 1 1.084-.73c1.037.203 2.122.67 2.937 1.485.816.815 1.282 1.9 1.484 2.937a.923.923 0 0 1-1.812.354c-.151-.777-.485-1.494-.977-1.986-.492-.491-1.209-.826-1.986-.977a.923.923 0 0 1-.73-1.083Z" clip-rule="evenodd"/></g><defs><clipPath id="a"><path fill="#fff" d="M.336.274h24v24h-24z"/></clipPath></defs></svg>