<svg xmlns="http://www.w3.org/2000/svg" width="25" height="25" fill="none"><path fill="#fff" d="m22.695 22.15-2.545-7.854a.743.743 0 0 0-.707-.514h-1.796c.804-1.458 1.382-3.18 1.382-5.118A6.671 6.671 0 0 0 12.366 2a6.671 6.671 0 0 0-6.663 6.664c0 1.939.578 3.66 1.382 5.118H5.288a.743.743 0 0 0-.707.514l-2.545 7.855a.743.743 0 0 0 .707.972H21.99a.743.743 0 0 0 .706-.972ZM12.365 3.487a5.183 5.183 0 0 1 5.178 5.178c0 4.562-3.892 7.896-5.178 8.873-1.287-.974-5.176-4.298-5.176-8.873a5.183 5.183 0 0 1 5.177-5.178Zm-8.6 18.15 2.064-6.368h2.209c1.716 2.34 3.774 3.71 3.921 3.807a.743.743 0 0 0 .813 0c.148-.097 2.206-1.466 3.922-3.807h2.21l2.063 6.369H3.765Z"/></svg>