<svg xmlns="http://www.w3.org/2000/svg" width="25" height="25" fill="none"><g clip-path="url(#a)"><path fill="#fff" fill-rule="evenodd" d="M1.5 18c0 .152.03.296.071.433L8.25 11.25 1.5 6v12Zm19.833 1.46-6.768-7.213L12 14.188l-2.454-1.951-6.879 7.223c.107.025 18.559.025 18.666 0ZM22.5 18V6l-6.75 5.25 6.679 7.183c.042-.137.071-.28.071-.433ZM2.25 4.5 12 12l9.75-7.5H2.25ZM3 3h18a3 3 0 0 1 3 3v12a3 3 0 0 1-3 3H3a3 3 0 0 1-3-3V6a3 3 0 0 1 3-3Z" clip-rule="evenodd"/></g><defs><clipPath id="a"><path fill="#fff" d="M.336.274h24v24h-24z"/></clipPath></defs></svg>