<svg xmlns="http://www.w3.org/2000/svg" width="43" height="43" fill="none"><path fill="#fff" d="M32.772 18.437c-.027-.061-.312-.549-.675-.852-.11-.094-.398-.251-.398-.251a2.25 2.25 0 0 0-1.013-.237h-3.73a.777.777 0 0 0 0 1.554h3.73c.287 0 .49.159.6.31a.83.83 0 0 1 .138.429.777.777 0 0 0 1.554 0c0-.334-.07-.655-.206-.953Z"/><path fill="#fff" d="M32.772 18.437c-.027-.061-.312-.549-.675-.852-.11-.094-.398-.251-.398-.251a2.25 2.25 0 0 0-1.013-.237h-3.73a.777.777 0 0 0 0 1.554h3.73c.287 0 .49.159.6.31a.83.83 0 0 1 .138.429.777.777 0 0 0 1.554 0c0-.334-.07-.655-.206-.953Z"/><path fill="#fff" d="m41.594 24.005-1.132-3.743v-.633a6.192 6.192 0 0 0-6.184-6.185H20.054a4.033 4.033 0 0 0 1.54-1.507.777.777 0 0 0-.002-.779 4.042 4.042 0 0 0-3.488-2.012c-.886 0-1.73.287-2.42.807a2.175 2.175 0 0 0-.121-.105 4.083 4.083 0 0 0 1.39-3.071.777.777 0 1 0-1.553 0c0 1.4-1.14 2.538-2.539 2.538h-2.026a2.542 2.542 0 0 1-2.538-2.538.776.776 0 1 0-1.554 0 4.08 4.08 0 0 0 1.39 3.07 2.223 2.223 0 0 0-.121.105 4.013 4.013 0 0 0-2.419-.806c-1.433 0-2.77.772-3.489 2.012a.777.777 0 0 0 0 .778 4.024 4.024 0 0 0 5.343 1.561l.51 3.697a2.152 2.152 0 0 0-1.019 1.828v.672c0 1.185.964 2.15 2.15 2.15h.4v.588c0 1.887.884 3.639 2.382 4.759l.725 8.856c.033.403.37.713.774.713h5.497c.405 0 .741-.31.774-.713l.628-7.67h2.402c.073.138.152.272.235.401v2.083a.777.777 0 1 0 1.554 0v-.488c.361.244.75.447 1.16.602v1.271a.777.777 0 1 0 1.554 0v-.928c.139.01.945-.003 1.203-.04l-.067 4.694a.778.778 0 0 0 .777.788h5.644a.777.777 0 0 0 .767-.654l1.126-6.986a.735.735 0 0 0 .01-.123v-9.608c0-.862-.18-1.695-.538-2.475-.077-.168-.46-.826-.563-.972a6.021 6.021 0 0 0-.815-.922 4.635 4.635 0 0 1 4.19 4.61v.632l-1.131 3.743a.775.775 0 0 0 .743 1.001h2.331a.778.778 0 0 0 .744-1.001ZM7.229 11.776a2.467 2.467 0 0 1-3.5-.228 2.485 2.485 0 0 1 1.864-.848c.624 0 1.214.232 1.667.646a2.343 2.343 0 0 0-.031.43ZM18.104 10.7c.719 0 1.399.316 1.864.848a2.474 2.474 0 0 1-3.5.23 2.338 2.338 0 0 0-.031-.432 2.463 2.463 0 0 1 1.667-.646Zm-9.11.466a.855.855 0 0 1 .653-.297h4.402c.254 0 .486.106.653.297.166.191.24.435.204.686l-.145 1.056a.75.75 0 1 0-.148 1.07l-.4 2.894h-4.73l-.4-2.894a.748.748 0 1 0-.147-1.07l-.146-1.056a.853.853 0 0 1 .205-.686Zm.094 9.124a.597.597 0 0 1-.596-.596v-.671c0-.33.267-.596.596-.596h5.521c.328 0 .596.267.596.596v.67a.596.596 0 0 1-.596.597H9.088Zm4.998 14.916-.585-7.152c.404.14.824.235 1.252.284l.563 6.868h-1.23Zm14.826-5.648a3.99 3.99 0 0 1-1.319.222 4.012 4.012 0 0 1-3.054-1.403h4.217c.287.302.605.572.948.804-.25.154-.515.281-.792.377Zm2.198 5.648h-1.236l.063-4.389a5.596 5.596 0 0 0 1.248-.795l-.075 5.184Zm3.97-15.817v9.546l-1.012 6.27h-1.404l.085-5.891a.777.777 0 0 0-.63-.774 4.128 4.128 0 0 1-.74-.218 4.246 4.246 0 0 1-1.68-1.22.775.775 0 0 0-.596-.279h-9.55a.777.777 0 0 0-.775.714l-.628 7.669h-1.274l-.629-7.67a.777.777 0 0 0-.774-.713H15.432a4.37 4.37 0 0 1-2.393-.71 4.38 4.38 0 0 1-1.997-3.681v-.588h3.567c1.185 0 2.15-.965 2.15-2.15v-.671c0-.771-.409-1.449-1.02-1.829l.307-2.23c.072.023 14.643.034 14.643.034.837 0 1.646.306 1.95.458.007.003.868.382 1.627 1.388.558.74.813 1.907.813 2.545Zm4.236 4.244.369-1.22.369 1.22h-.738Z"/><path fill="#fff" d="M32.772 18.437c-.027-.061-.312-.549-.675-.852-.11-.094-.398-.251-.398-.251a2.25 2.25 0 0 0-1.013-.237h-3.73a.777.777 0 0 0 0 1.554h3.73c.287 0 .49.159.6.31a.83.83 0 0 1 .138.429.777.777 0 0 0 1.554 0c0-.334-.07-.655-.206-.953Z"/></svg>