<svg xmlns="http://www.w3.org/2000/svg" width="43" height="43" fill="none"><path fill="#fff" d="M23.064 6.412h-4.128c-2.946 0-5.342 2.438-5.342 5.435v3.326c0 .406.211.782.556.987a1.109 1.109 0 0 0 1.117.011A11.6 11.6 0 0 1 21 14.654a11.6 11.6 0 0 1 5.733 1.517c.348.199.773.194 1.117-.01.345-.206.556-.582.556-.988v-3.326c0-2.997-2.396-5.435-5.342-5.435Zm3.093 6.955c-1.633-.658-3.387-1-5.157-1s-3.524.342-5.158 1v-1.52c0-1.736 1.388-3.147 3.094-3.147h4.128c1.706 0 3.094 1.411 3.094 3.146v1.52Z"/><path fill="#fff" d="M31.761 17.5v-5.653C31.761 6.969 27.86 3 23.064 3h-4.128c-4.796 0-8.697 3.969-8.697 8.847V17.5A14.373 14.373 0 0 0 7 26.61c0 2.506.65 4.973 1.88 7.13a14.214 14.214 0 0 0 4.941 5.098c.175.106.374.162.578.162H27.6c.204 0 .403-.056.578-.162a14.215 14.215 0 0 0 4.942-5.098A14.425 14.425 0 0 0 35 26.61c0-3.338-1.147-6.555-3.239-9.11Zm-.586 15.093a11.95 11.95 0 0 1-3.892 4.12H14.717a11.95 11.95 0 0 1-3.892-4.12 12.104 12.104 0 0 1-1.576-5.984c0-2.925 1.05-5.74 2.956-7.927.182-.209.283-.479.283-.758v-6.077c0-3.617 2.892-6.56 6.448-6.56h4.128c3.556 0 6.448 2.943 6.448 6.56v6.077c0 .28.101.55.283.758a12.056 12.056 0 0 1 2.956 7.927c0 2.105-.545 4.174-1.576 5.984Z"/></svg>