<svg xmlns="http://www.w3.org/2000/svg" width="43" height="43" fill="none"><path fill="#fff" fill-rule="evenodd" d="M6.65 7.68a3.684 3.684 0 0 0 5.274 3.316l3.567 4.064a7.433 7.433 0 0 0-1.89 4.96c0 1.221.294 2.375.816 3.394l-1.652 1.439a.99.99 0 1 0 1.3 1.492l1.489-1.296a7.445 7.445 0 0 0 6.586 2.356l.767 3.321a3.93 3.93 0 0 0-2.136 3.494 3.93 3.93 0 0 0 3.926 3.926 3.93 3.93 0 0 0 3.927-3.926 3.931 3.931 0 0 0-3.785-3.924l-.793-3.435a7.474 7.474 0 0 0 4.48-6.841 7.43 7.43 0 0 0-1.725-4.767l2.506-2.182c.404.208.863.325 1.348.325a2.969 2.969 0 0 0 2.965-2.966 2.969 2.969 0 0 0-2.965-2.965 2.969 2.969 0 0 0-2.71 4.168l-2.609 2.271a7.422 7.422 0 0 0-4.273-1.347 7.42 7.42 0 0 0-4.072 1.212l-3.58-4.08a3.658 3.658 0 0 0 .599-2.01C14.01 5.651 12.359 4 10.33 4a3.684 3.684 0 0 0-3.68 3.68Zm1.961 20.81a3.658 3.658 0 0 0-1.932-.55A3.684 3.684 0 0 0 3 31.62c0 2.028 1.65 3.68 3.68 3.68 2.028 0 3.679-1.651 3.679-3.68 0-.603-.146-1.172-.404-1.675l1.434-1.202a.99.99 0 1 0-1.271-1.517L8.61 28.49Zm22.48-7.48h1.376a3.446 3.446 0 0 0 3.294 2.45 3.443 3.443 0 0 0 3.44-3.44 3.443 3.443 0 0 0-3.44-3.44 3.446 3.446 0 0 0-3.294 2.45h-1.376a.99.99 0 0 0 0 1.98Zm-6.394 11.263a1.95 1.95 0 0 0-1.947 1.947 1.95 1.95 0 0 0 1.947 1.947 1.95 1.95 0 0 0 1.948-1.947 1.95 1.95 0 0 0-1.948-1.947Zm4.971-21.843a.988.988 0 0 1 1.973 0 .988.988 0 0 1-1.973 0Zm-8.605 15.238a5.649 5.649 0 1 0 0-11.297 5.649 5.649 0 0 0 0 11.297Zm-8.3-17.988a2.432 2.432 0 1 1-4.865 0 2.432 2.432 0 0 1 4.865 0Zm22.999 14.552a2.212 2.212 0 1 0 0-4.425 2.212 2.212 0 0 0 0 4.425ZM8.79 31.62a2.112 2.112 0 1 1-4.224 0 2.112 2.112 0 0 1 4.224 0Z" clip-rule="evenodd"/></svg>