<svg xmlns="http://www.w3.org/2000/svg" width="43" height="43" fill="none"><path fill="#fff" fill-rule="evenodd" d="M7.632 13.709C9 7.455 15.088 2.869 21.413 3.003c4.317-.035 8.548 2 11.25 5.335a7.577 7.577 0 0 1 2.665-.54c1.274-.017 2.887.353 3.66 1.867.361.68.45 1.382.286 2.064-.158.656-.53 1.219-.955 1.691-.71.789-1.729 1.499-2.701 2.126.045.445.067.877.067 1.282.031 2.21-.583 4.74-1.55 6.825-2.735 6.04-7.341 10.943-12.07 15.248a1 1 0 0 1-1.378-.031c-3.917-3.901-7.648-8.183-10.44-13.073-.685.346-1.57.662-2.467.752-1.192.12-2.667-.162-3.447-1.646a.991.991 0 0 1-.035-.074c-.289-.678-.37-1.35-.235-2.002.132-.639.453-1.182.838-1.644.653-.785 1.629-1.487 2.544-2.138a13.43 13.43 0 0 1 .187-5.337Zm.332 7.428c-.647.474-1.166.893-1.526 1.326-.247.296-.37.547-.416.768-.041.2-.034.445.1.775.246.438.695.63 1.46.553.593-.06 1.223-.28 1.715-.523a41.967 41.967 0 0 1-.171-.34 13.432 13.432 0 0 1-1.162-2.559Zm1.728-1.184c.642-.393 1.28-.741 1.93-1.085l.418-.222c.564-.297 1.14-.602 1.717-.932.949.658 2.062.878 3.125.797 1.278-.098 2.535-.63 3.502-1.418.967-.72 1.833-1.555 2.645-2.34l.313-.302c.929-.892 1.81-1.703 2.813-2.335a1 1 0 0 0 .098-1.621c-3.156-2.57-8.206-3.294-11.696-.543a5.986 5.986 0 0 0-2.217 3.158c-.274.963-.285 2.037.142 3.027-.445.25-.897.488-1.364.734l-.435.23c-.447.238-.906.485-1.374.754a11.37 11.37 0 0 1 .27-3.687l.005-.022c1.15-5.278 6.357-9.243 11.758-9.144l.06.001c4.77-.05 9.42 2.859 11.31 7.229a10.487 10.487 0 0 1 .739 2.334c-.708.443-1.41.826-2.124 1.205l-.419.221a55.41 55.41 0 0 0-1.717.933c-.95-.658-2.062-.878-3.125-.797-1.278.098-2.535.63-3.502 1.418-.967.72-1.833 1.555-2.645 2.34l-.313.301c-.93.893-1.81 1.703-2.813 2.336a1 1 0 0 0-.098 1.621c3.156 2.57 8.205 3.294 11.696.543a5.986 5.986 0 0 0 2.217-3.158c.274-.963.285-2.037-.142-3.027.445-.25.897-.488 1.364-.735l.434-.23c.463-.245.937-.5 1.42-.78l.001.076v.016c.028 1.867-.503 4.106-1.366 5.966l-.004.009c-2.434 5.376-6.488 9.869-10.892 13.95-4.148-4.205-7.934-8.772-10.521-13.999a1.018 1.018 0 0 0-.036-.066 11.471 11.471 0 0 1-1.174-2.756Zm18.614-1.18a.991.991 0 0 0 .028.035c.482.597.581 1.361.35 2.174a3.986 3.986 0 0 1-1.516 2.122c-2.24 1.779-5.552 1.691-8.1.247.692-.551 1.324-1.146 1.923-1.722l.317-.305c.83-.8 1.603-1.546 2.466-2.185a.97.97 0 0 0 .041-.032c.67-.552 1.55-.92 2.403-.985.8-.06 1.53.143 2.088.651Zm6.928-5.373c.65-.447 1.205-.88 1.598-1.318.3-.332.445-.604.497-.82.045-.187.036-.39-.11-.662l-.01-.02c-.252-.499-.86-.796-1.854-.782a5.585 5.585 0 0 0-1.514.243c.26.445.494.908.7 1.386.286.617.516 1.289.693 1.973Zm-20.592 2.466a1.022 1.022 0 0 0-.028-.035c-.482-.597-.581-1.361-.35-2.174a3.984 3.984 0 0 1 1.515-2.121c2.241-1.78 5.553-1.692 8.1-.248-.692.551-1.323 1.146-1.923 1.721l-.317.306c-.829.8-1.603 1.546-2.466 2.185a.969.969 0 0 0-.04.032c-.67.552-1.55.92-2.403.985-.8.06-1.53-.143-2.088-.65Z" clip-rule="evenodd"/></svg>