<svg xmlns="http://www.w3.org/2000/svg" width="43" height="43" fill="none"><path fill="#fff" d="M12.6 9.741c.36 0 .6-.237.6-.592 0-.356.24-.593.6-.593s.6-.237.6-.592c0-.356-.24-.593-.6-.593-1.02 0-1.8.77-1.8 1.778 0 .355.24.592.6.592ZM27.6 9.741c.36 0 .6-.237.6-.592 0-.356.24-.593.6-.593s.6-.237.6-.592c0-.356-.24-.593-.6-.593-1.02 0-1.8.77-1.8 1.778 0 .355.24.592.6.592ZM13.8 31.074c-1.02 0-1.8.77-1.8 1.778 0 .356.24.593.6.593s.6-.237.6-.593.24-.593.6-.593.6-.237.6-.592c0-.356-.24-.593-.6-.593ZM28.8 31.074c-1.02 0-1.8.77-1.8 1.778 0 .356.24.593.6.593s.6-.237.6-.593.24-.593.6-.593.6-.237.6-.592c0-.356-.24-.593-.6-.593ZM7.198 19.223c-1.02 0-1.8.77-1.8 1.777 0 .356.24.593.6.593s.6-.237.6-.593c0-.355.24-.592.6-.592s.6-.237.6-.593c0-.355-.24-.592-.6-.592ZM20.998 14.481c-3.66 0-6.6 2.904-6.6 6.519s2.94 6.519 6.6 6.519c3.66 0 6.6-2.904 6.6-6.519s-2.94-6.519-6.6-6.519Zm0 11.852c-3 0-5.4-2.37-5.4-5.333s2.4-5.333 5.4-5.333c3 0 5.4 2.37 5.4 5.333s-2.4 5.333-5.4 5.333Z"/><path fill="#fff" d="M20.997 16.852c-2.34 0-4.2 1.837-4.2 4.148 0 .355.24.592.6.592s.6-.237.6-.592c0-1.66 1.32-2.963 3-2.963.36 0 .6-.237.6-.593 0-.355-.24-.592-.6-.592Z"/><path fill="#fff" d="M34.8 16.852c-.41 0-.804.057-1.177.163l-2.498-4.402A4.112 4.112 0 0 0 33 9.148C33 6.837 31.14 5 28.8 5c-2.136 0-3.871 1.53-4.158 3.556h-6.684C17.67 6.53 15.936 5 13.8 5c-2.34 0-4.2 1.837-4.2 4.148 0 1.433.716 2.684 1.817 3.427l-3.45 4.346a4.362 4.362 0 0 0-.767-.07C4.86 16.852 3 18.69 3 21s1.86 4.148 4.2 4.148c.244 0 .483-.021.715-.06l3.464 4.364a4.11 4.11 0 0 0-1.779 3.4C9.6 35.163 11.46 37 13.8 37c2.136 0 3.871-1.53 4.158-3.556h6.684C24.93 35.47 26.664 37 28.8 37c2.34 0 4.2-1.837 4.2-4.148a4.112 4.112 0 0 0-1.924-3.496l2.448-4.4c.401.125.83.192 1.276.192 2.34 0 4.2-1.837 4.2-4.148s-1.86-4.148-4.2-4.148Zm-6-10.667c1.68 0 3 1.304 3 2.963 0 1.65-1.304 2.947-2.97 2.962-1.666-.015-2.97-1.313-2.97-2.962a.657.657 0 0 0-.049-.255c.128-1.536 1.396-2.708 2.989-2.708Zm-18 2.963c0-1.66 1.32-2.963 3-2.963s3 1.304 3 2.963c0 1.648-1.302 2.944-2.965 2.962-.412-.004-.823-.121-1.235-.295a.572.572 0 0 0-.244-.06A2.93 2.93 0 0 1 10.8 9.149ZM4.2 21c0-1.66 1.32-2.963 3-2.963.278 0 .546.036.8.104l.04.015a2.998 2.998 0 0 1 2.15 2.6v.005a2.91 2.91 0 0 1 0 .48v.003c-.104 1.205-.973 2.267-2.21 2.6a.561.561 0 0 0-.094.043c-.22.05-.449.076-.686.076-1.68 0-3-1.304-3-2.963Zm9.6 14.815c-1.68 0-3-1.304-3-2.963a2.93 2.93 0 0 1 1.567-2.614.57.57 0 0 0 .173-.053c.42-.178.84-.296 1.26-.296 1.68 0 3 1.303 3 2.963 0 1.66-1.32 2.963-3 2.963Zm18-2.963c0 1.66-1.32 2.963-3 2.963s-3-1.304-3-2.963c0-1.66 1.32-2.963 3-2.963s3 1.304 3 2.963Zm-1.848-3.992a4.324 4.324 0 0 0-1.152-.156H28.74c-2.1 0-3.84 1.54-4.14 3.555h-6.642c-.269-1.898-1.812-3.362-3.764-3.537l-.043-.003c-.05-.004-.098-.008-.148-.01a4.735 4.735 0 0 0-1.523.173L9.133 24.69a4.113 4.113 0 0 0 2.263-3.868 4.4 4.4 0 0 0-.009-.137 4.113 4.113 0 0 0-2.254-3.376l3.347-4.19c.344.096.728.153 1.086.17l.03.002a4.712 4.712 0 0 0 .407 0c.05-.002.099-.006.148-.01l.043-.003c1.952-.175 3.495-1.639 3.764-3.537h6.684c.27 1.898 1.812 3.362 3.764 3.537l.043.003c.05.004.098.008.148.01a4.267 4.267 0 0 0 .602-.014l.05-.004c.06-.006.119-.013.178-.022l.12-.02.032-.005c.144-.027.286-.06.425-.1l2.448 4.423a4.14 4.14 0 0 0-1.016.951l-.02.027a4.078 4.078 0 0 0-.096.133l-.011.017a3.96 3.96 0 0 0-.097.15l-.02.032-.079.136-.022.04a3.925 3.925 0 0 0-.212.463 4.051 4.051 0 0 0-.111.329l-.01.035a4.114 4.114 0 0 0-.05.192l-.01.048a3.854 3.854 0 0 0-.07.426l-.008.065a4.22 4.22 0 0 0-.013.17l-.002.048a4.225 4.225 0 0 0 0 .378l.002.047c.003.058.008.115.013.171l.007.065a4.521 4.521 0 0 0 .07.426l.012.048c.014.065.031.129.049.192l.01.035a4.08 4.08 0 0 0 .54 1.15l.012.017c.031.045.063.09.096.133l.02.027a4.056 4.056 0 0 0 .186.227c.243.276.521.52.83.724l-2.5 4.409Zm4.848-4.897c-.389 0-.758-.07-1.096-.199a.395.395 0 0 0-.164-.097 2.916 2.916 0 0 1-1.731-2.447l-.002-.018a2.875 2.875 0 0 1 0-.404l.002-.017c.08-1.043.73-2.005 1.851-2.448a.574.574 0 0 0 .183-.146c.3-.097.62-.15.957-.15 1.68 0 3 1.304 3 2.963 0 1.66-1.32 2.963-3 2.963Z"/><path fill="#fff" d="M34.8 19.223c-1.02 0-1.8.77-1.8 1.777 0 .356.24.593.6.593s.6-.237.6-.593c0-.355.24-.592.6-.592s.6-.237.6-.593c0-.355-.24-.592-.6-.592Z"/></svg>