<svg xmlns="http://www.w3.org/2000/svg" width="43" height="43" fill="none"><path fill="#fff" d="M26.526 11.788c-1.77-.242-3.693-.157-5.558.247a.85.85 0 0 0 .36 1.663c1.673-.363 3.39-.44 4.967-.224a.85.85 0 1 0 .23-1.686ZM32.723 16.195a.85.85 0 0 0-.337 1.155c.067.122.131.246.19.369a.85.85 0 1 0 1.534-.737 9.483 9.483 0 0 0-.232-.45.85.85 0 0 0-1.155-.337ZM33.983 19.015a.85.85 0 0 0-.726.959 7.572 7.572 0 0 1-1.532 5.716.85.85 0 0 0 1.345 1.042 9.26 9.26 0 0 0 1.873-6.991.851.851 0 0 0-.96-.726Z"/><path fill="#fff" d="M39.294 18.461c-.366 0-.714.08-1.03.22-.46-2.71-1.742-5.035-3.775-6.81-2-1.745-4.624-2.898-7.647-3.372a3.407 3.407 0 0 0-3.22-4.5 3.407 3.407 0 0 0-3.212 4.527c-1.428.23-2.802.602-4.104 1.115l-4.31-3.732a.851.851 0 0 0-1.404.558l-.57 5.664c-2.462 1.394-4.025 3.414-4.77 6.163-.426 1.57-.696 1.66-1.57 1.734-1.34.113-1.988.688-2.297 1.151-.447.67-.505 1.534-.173 2.565l.988 3.072c.465 1.444 1.325 1.747 1.965 1.747h.946c2.199 2.863 4.24 3.543 6.896 4.206a83.291 83.291 0 0 1-.38 3.556H9.455a.85.85 0 0 0 0 1.702h9.063a.85.85 0 0 0 0-1.702h-.325l.527-1.792c2.041.316 4.144.17 6.758-.469l.032.278c.102.87.218 1.857.195 2.814a.851.851 0 0 0 .85.87h7.881a.85.85 0 0 0 0-1.7h-1.862c.763-3.088 2.192-6.204 3.211-7.52a12.62 12.62 0 0 0 2.671-7.793c0-.469.376-.85.838-.85.462 0 .838.381.838.85 0 .225-.09.445-.247.604a.85.85 0 1 0 1.207 1.198 2.542 2.542 0 0 0 .742-1.802 2.548 2.548 0 0 0-2.54-2.552ZM23.622 5.701c.938 0 1.701.764 1.701 1.702s-.763 1.701-1.701 1.701a1.703 1.703 0 0 1-1.702-1.701c0-.938.763-1.702 1.702-1.702ZM34.44 27.764c-1.358 1.753-2.886 5.4-3.615 8.561h-3.429c-.031-.767-.118-1.507-.197-2.18a29.7 29.7 0 0 1-.126-1.218.85.85 0 0 0-1.075-.757c-3.146.87-5.45 1.036-7.702.556a.85.85 0 0 0-.993.592l-.884 3.007h-3.078c.172-1.406.346-2.97.411-4.166a.851.851 0 0 0-.648-.872c-2.967-.724-4.758-1.16-6.88-4.075a.85.85 0 0 0-.688-.35H4.166c-.121 0-.262-.305-.346-.567l-.989-3.072c-.16-.498-.17-.889-.03-1.1.143-.214.507-.356 1.025-.4 1.943-.164 2.578-1.175 3.068-2.984.872-3.213 2.884-4.575 4.321-5.32a.852.852 0 0 0 .456-.67l.45-4.48 3.467 3.001a.85.85 0 0 0 .89.14 18.394 18.394 0 0 1 5.057-1.322c.577.449 1.3.718 2.087.718.796 0 1.53-.276 2.11-.737 5.396.59 11.023 3.752 11.023 10.944 0 2.462-.8 4.796-2.314 6.751Z"/><path fill="#fff" d="M11.163 17.605a.852.852 0 0 0-.85.851c0 .469.381.85.85.85s.85-.381.85-.85a.852.852 0 0 0-.85-.85ZM23.762 36.326h-.794a.85.85 0 0 0 0 1.702h.794a.85.85 0 0 0 0-1.702Z"/></svg>