<svg xmlns="http://www.w3.org/2000/svg" width="69" height="69" fill="none"><path fill="#fff" d="M47.88 40.834v19.18H60.1V39.13c-.075-8.442-8.295-16.144-17.922-16.144h-3.332c-9.85.223-16.737 7.184-16.737 16.144v29.252l12.22-8.368V41.056c0-2.888 2.295-6.295 6.812-6.295 4.148 0 6.74 3.555 6.74 6.072Z"/><path fill="#53AF32" d="M52.394 15.655c1.11 4.814.296 13.626-3.48 20.365-1.63 3.11-4.592 2.888-4.592 2.888h-3.85v11.405s33.916 2.814 26.881-45.84c-13.478-6.295-47.32-5.776-60.947 16.44-3.777 6.22-4.888 11.627-5.258 16.218L1 42.611v25.771h14.44V39.205c3.851-19.403 21.032-26.734 36.954-23.55Z"/></svg>