<svg xmlns="http://www.w3.org/2000/svg" width="239" height="34" fill="none"><path fill="#646363" d="M24.767 20.035v9.647h6.447V19.18c-.04-4.247-4.376-8.12-9.455-8.12h-1.758c-5.196.111-8.868 3.613-8.868 8.12V33.89l6.446-4.209v-9.535c0-1.453 1.211-3.166 3.594-3.166 2.227 0 3.594 1.788 3.594 3.054Z"/><path fill="#53AF32" d="M27.152 7.371c.586 2.421.156 6.854-1.836 10.243-.86 1.565-2.422 1.453-2.422 1.453h-2.032v5.736S38.755 26.22 35.044 1.747C27.934-1.42 10.079-1.16 2.89 10.016.899 13.145.313 15.864.117 18.173L0 20.93v12.963h7.618V19.216C9.65 9.457 18.713 5.77 27.152 7.371Z"/><path fill="#3D3D3B" d="M52 11.13c4.705 0 8.44 1.452 8.44 6.333 0 4.88-3.597 6.332-8.44 6.332h-2.49v5.804h-5.12V11.263H52v-.132Zm.277 4.222H49.51v4.221h2.767c1.522 0 2.906-.395 2.906-2.11 0-1.715-1.384-2.11-2.906-2.11ZM63.758 29.6V11.262h5.12v6.991h2.49l4.427-6.991h5.673l-6.088 8.97 6.365 9.498h-5.673l-4.704-7.123h-2.352v7.123h-5.258v-.132Z"/><path fill="#646363" d="M92.336 18.518v3.694H81.82v-3.694h10.516ZM95.867 29.6V11.262h17.295v18.336h-5.119V15.484h-7.195v14.115h-4.98ZM125.477 11.13c4.704 0 8.44 1.452 8.44 6.333 0 4.88-3.597 6.332-8.44 6.332h-2.49v5.804h-5.12V11.263h7.61v-.132Zm.277 4.222h-2.767v4.221h2.767c1.522 0 2.905-.395 2.905-2.11 0-1.715-1.383-2.11-2.905-2.11ZM151.071 11.13v4.222h-8.856v2.77h8.025v4.222h-8.025v3.034h8.994v4.221h-13.975V11.263h13.837v-.132ZM176.805 11.13v18.337h-5.119v-9.762l-4.151 6.069h-2.905l-4.151-6.069v9.762h-5.12V11.131h4.843l5.811 8.574 5.811-8.574h4.981ZM193.822 29.6v-7.52c0-1.055 0-2.11.138-3.034l-7.61 10.553h-4.842V11.263h5.119v7.519c0 1.055 0 2.242-.138 3.034l7.61-10.553h4.842v18.336h-5.119ZM203.508 29.6V11.262h5.119v6.991h2.491l4.427-6.991h5.673l-6.088 8.97 6.365 9.498h-5.673l-4.704-7.123h-2.352v7.123h-5.258v-.132ZM232.703 10.735c1.937 0 3.874.396 5.534 1.187v4.617c-1.245-.923-2.905-1.45-4.704-1.45-3.044 0-6.088 1.582-6.088 5.54 0 3.561 3.044 5.012 6.088 5.012 1.937 0 3.736-.527 4.843-1.582v4.748c-1.661.792-3.598 1.188-5.673 1.188-5.258 0-10.515-2.77-10.515-9.366 0-6.992 5.257-9.894 10.515-9.894Z"/></svg>