<svg xmlns="http://www.w3.org/2000/svg" width="69" height="69" fill="none"><path fill="#646363" d="M47.84 40.754v19.141h12.206V39.054c-.074-8.425-8.286-16.112-17.903-16.112h-3.33c-9.839.222-16.72 7.17-16.72 16.112v29.193l12.208-8.352v-18.92c0-2.882 2.293-6.282 6.806-6.282 4.143 0 6.732 3.548 6.732 6.06Z"/><path fill="#53AF32" d="M52.343 15.626c1.11 4.804.296 13.599-3.477 20.324-1.627 3.104-4.587 2.882-4.587 2.882h-3.847v11.382s33.884 2.808 26.855-45.748C53.823-1.816 20.013-1.299 6.401 20.873 2.628 27.081 1.518 32.477 1.148 37.06L1 42.528v25.72h14.426v-29.12c3.847-19.363 21.011-26.68 36.917-23.502Z"/></svg>