<svg xmlns="http://www.w3.org/2000/svg" width="232" height="36" fill="none"><path fill="#fff" fill-opacity=".5" d="M24.106 21.461V31.31h6.274V20.587c-.038-4.335-4.258-8.29-9.201-8.29h-1.711c-5.057.115-8.632 3.69-8.632 8.29v15.019l6.274-4.297v-9.734c0-1.482 1.179-3.232 3.498-3.232 2.168 0 3.498 1.826 3.498 3.118Z"/><path fill="#fff" d="M26.426 8.533c.57 2.472.152 6.997-1.787 10.457-.837 1.597-2.358 1.483-2.358 1.483h-1.977V26.328S37.72 27.773 34.106 2.792C27.186-.44 9.81-.174 2.814 11.233c-1.94 3.194-2.51 5.97-2.7 8.327L0 22.374v13.232h7.414V20.625C9.392 10.663 18.213 6.898 26.426 8.533ZM50.608 12.37c4.579 0 8.214 1.482 8.214 6.464 0 4.983-3.5 6.464-8.214 6.464h-2.424v5.925h-4.982V12.505h7.406v-.134Zm.27 4.31h-2.694v4.309h2.693c1.482 0 2.828-.404 2.828-2.155 0-1.75-1.346-2.154-2.828-2.154ZM62.054 31.223V12.505h4.983v7.137h2.424l4.309-7.137h5.52l-5.924 9.157 6.194 9.696h-5.52l-4.58-7.272h-2.289v7.272h-5.117v-.135Z"/><path fill="#fff" fill-opacity=".5" d="M89.863 19.912v3.77H79.63v-3.77h10.234ZM93.298 31.223V12.505h16.833v18.718h-4.982V16.814h-7.003v14.41h-4.848ZM122.116 12.37c4.578 0 8.214 1.482 8.214 6.464 0 4.983-3.501 6.464-8.214 6.464h-2.424v5.925h-4.983V12.505h7.407v-.134Zm.269 4.31h-2.693v4.309h2.693c1.481 0 2.828-.404 2.828-2.155 0-1.75-1.347-2.154-2.828-2.154ZM147.028 12.37v4.31h-8.618v2.828h7.81v4.309h-7.81v3.097h8.753v4.31h-13.601V12.504h13.466v-.134ZM172.075 12.37V31.09h-4.982v-9.965l-4.04 6.194h-2.828l-4.04-6.194v9.965h-4.982V12.37h4.713l5.656 8.753 5.656-8.753h4.847ZM188.639 31.223v-7.675c0-1.078 0-2.155.135-3.098l-7.407 10.773h-4.713V12.505h4.983v7.676c0 1.077 0 2.29-.135 3.097l7.406-10.773h4.713v18.718h-4.982ZM198.065 31.223V12.505h4.983v7.137h2.424l4.309-7.137h5.521l-5.925 9.157 6.194 9.696h-5.521l-4.578-7.272h-2.29v7.272h-5.117v-.135ZM226.479 11.967c1.885 0 3.77.404 5.386 1.212v4.713c-1.212-.943-2.828-1.481-4.578-1.481-2.963 0-5.925 1.616-5.925 5.655 0 3.636 2.962 5.118 5.925 5.118 1.885 0 3.636-.54 4.713-1.616v4.847c-1.616.808-3.501 1.212-5.521 1.212-5.117 0-10.235-2.828-10.235-9.56 0-7.138 5.118-10.1 10.235-10.1Z"/><path fill="#fff" d="M24.095 21.445v9.859h6.28V20.57c-.038-4.34-4.263-8.298-9.211-8.298H19.45c-5.063.114-8.603 3.692-8.603 8.298v15.036l6.281-4.302V21.56c0-1.485 1.18-3.236 3.502-3.236 2.132 0 3.464 1.827 3.464 3.121Z"/><path fill="#53AF32" d="M26.417 8.504c.57 2.474.152 7.004-1.79 10.467-.837 1.6-2.36 1.485-2.36 1.485h-1.979v5.862s17.434 1.446 13.818-23.562C27.178-.48 9.783-.214 2.779 11.206.837 14.404.266 17.182.076 19.542L0 22.36v13.247h7.423V20.608c1.979-9.973 10.81-13.741 18.994-12.104Z"/></svg>