<?xml version="1.0" encoding="utf-8"?><svg xmlns="http://www.w3.org/2000/svg" xmlns:xlink="http://www.w3.org/1999/xlink"><symbol viewBox="0 0 18 22" id="contacts-address" xmlns="http://www.w3.org/2000/svg"><path fill-rule="evenodd" clip-rule="evenodd" d="M17.2 8.496a8.742 8.742 0 01-.209 1.88 8.273 8.273 0 01-.569 1.674c-.915 2.155-2.932 5.465-7.344 9.011a.604.604 0 01-.756 0c-4.416-3.546-6.43-6.856-7.344-9.01a8.37 8.37 0 01-.627-1.96A8.362 8.362 0 01.2 8.496C.2 3.812 4.012 0 8.696 0c4.683 0 8.495 3.812 8.504 8.496zm-1.209-.005c0-4.021-3.274-7.296-7.295-7.296C4.674 1.195 1.4 4.47 1.4 8.491c0 .467.044.929.133 1.386 0 .014.004.023.004.032.005.022.014.088.04.19v.01c.116.497.28.986.494 1.448.004.004.004.013.008.018.831 1.968 2.653 4.972 6.617 8.247 3.963-3.275 5.785-6.279 6.616-8.247.004-.005.004-.014.008-.018a7.02 7.02 0 00.494-1.449V10.1l.04-.191c0-.01.004-.018.004-.027.089-.453.133-.92.133-1.39z"/><path fill-rule="evenodd" clip-rule="evenodd" d="M14.09 8.589a5.403 5.403 0 01-5.394 5.394A5.403 5.403 0 013.3 8.589a5.403 5.403 0 015.395-5.394 5.403 5.403 0 015.394 5.394zm-1.2 0a4.202 4.202 0 00-4.194-4.195A4.202 4.202 0 004.5 8.59a4.2 4.2 0 004.195 4.194A4.2 4.2 0 0012.89 8.59z"/></symbol><symbol viewBox="0 0 22 18" id="contacts-email" xmlns="http://www.w3.org/2000/svg"><path fill-rule="evenodd" clip-rule="evenodd" d="M22 3.445v11.357a2.693 2.693 0 01-2.69 2.69H2.69A2.693 2.693 0 010 14.802V3.44A2.693 2.693 0 012.69.75h16.624A2.69 2.69 0 0122 3.445zm-1.23 11.357V3.445c0-.806-.655-1.461-1.46-1.461H2.69c-.805 0-1.461.655-1.461 1.46v11.358c0 .806.656 1.461 1.461 1.461h16.624c.806 0 1.462-.655 1.462-1.46h-.005z"/><path d="M13.875 8.98l5.38-4.825a.618.618 0 00.046-.87.617.617 0 00-.87-.045l-7.42 6.66-1.447-1.293c-.005-.005-.01-.01-.01-.014a.91.91 0 00-.1-.086l-5.89-5.272a.614.614 0 00-.87.05.614.614 0 00.05.87L8.19 9.02l-5.421 5.076a.617.617 0 00.842.9L9.113 9.85l1.493 1.333a.614.614 0 00.82-.004l1.534-1.375 5.471 5.198a.614.614 0 10.847-.892l-5.403-5.13z"/></symbol><symbol viewBox="0 0 23 23" id="contacts-phone" xmlns="http://www.w3.org/2000/svg"><path fill-rule="evenodd" clip-rule="evenodd" d="M20.298 16.214c.47.465.716 1.019.716 1.595 0 .572-.242 1.13-.702 1.61-.2.209-.405.409-.605.6-.293.283-.572.548-.814.84-.004.01-.014.015-.018.024-.707.767-1.61 1.153-2.683 1.153a4.89 4.89 0 01-.293-.01c-1.595-.101-3.023-.701-4.092-1.208-2.8-1.353-5.25-3.274-7.287-5.706C2.842 13.094 1.716 11.211.963 9.18.656 8.351.256 7.086.368 5.729a3.402 3.402 0 011.009-2.163l1.58-1.595.01-.009c.465-.446 1.014-.683 1.581-.683s1.107.237 1.558.683c.302.28.595.577.874.865.14.149.288.298.433.442l1.269 1.27c.976.976.976 2.24 0 3.217-.13.13-.26.265-.39.395-.345.35-.698.712-1.08 1.06.284.628.675 1.247 1.256 1.981 1.2 1.474 2.45 2.614 3.827 3.488.135.084.293.163.46.246.117.06.237.121.358.186l1.47-1.464c.47-.47 1.018-.716 1.59-.716.577 0 1.12.25 1.572.72l2.553 2.562zm-.893.88l-2.572-2.572c-.144-.158-.38-.34-.67-.34-.292 0-.543.191-.701.35l-1.59 1.59c-.08.079-.322.32-.707.32-.154 0-.303-.037-.46-.116-.02-.01-.038-.023-.057-.032a5.898 5.898 0 00-.46-.247c-.186-.093-.381-.19-.572-.312-1.492-.944-2.846-2.176-4.13-3.757l-.004-.004c-.707-.898-1.172-1.651-1.502-2.451l-.014-.042c-.083-.265-.158-.655.242-1.055.005-.01.014-.014.023-.024A24.27 24.27 0 007.4 7.268c.134-.13.265-.265.4-.4.492-.493.492-.949 0-1.442l-1.27-1.27c-.149-.153-.298-.301-.442-.45a23.478 23.478 0 00-.85-.846c-.15-.15-.387-.326-.68-.326-.237 0-.479.116-.706.33L2.265 4.45a2.135 2.135 0 00-.642 1.38c-.07.852.089 1.754.521 2.912.702 1.897 1.762 3.664 3.348 5.575a20.655 20.655 0 006.863 5.376c.963.46 2.246 1 3.627 1.088.07.004.145.004.214.004.726 0 1.28-.237 1.749-.739.288-.34.595-.642.897-.93.2-.195.386-.372.568-.567-.005 0-.005.004 0 0 .474-.493.474-.981-.005-1.456z"/><path d="M12.24 5.245a5.897 5.897 0 013.208 1.665 5.928 5.928 0 011.665 3.208c.05.307.316.521.618.521.037 0 .07-.005.107-.01a.628.628 0 00.516-.725 7.172 7.172 0 00-2.013-3.882 7.172 7.172 0 00-3.883-2.014.631.631 0 00-.726.512.62.62 0 00.507.725zm10.1 4.478a11.8 11.8 0 00-3.316-6.394A11.8 11.8 0 0012.63.014a.625.625 0 00-.72.511.63.63 0 00.515.726 10.566 10.566 0 015.715 2.962 10.535 10.535 0 012.962 5.715c.051.306.316.52.619.52a.616.616 0 00.618-.725z"/></symbol><symbol viewBox="0 0 21 11" id="to-top" xmlns="http://www.w3.org/2000/svg"><path d="M20.125 10.328a.435.435 0 01-.743.308l-9.257-9.259-9.257 9.259a.435.435 0 11-.616-.616L9.818.455c.17-.17.444-.17.614 0l9.565 9.565a.435.435 0 01.128.308z"/></symbol></svg>