<svg width="18" height="22" viewBox="0 0 18 22" xmlns="http://www.w3.org/2000/svg">
<path fill-rule="evenodd" clip-rule="evenodd" d="M17.2 8.49556C17.2 9.02875 17.1466 9.56639 17.0489 10.0907C17.0444 10.1218 17.0267 10.2151 16.9911 10.3751C16.8623 10.9527 16.6712 11.5125 16.4224 12.0502C15.5071 14.2052 13.4898 17.5154 9.07763 21.0612C8.96655 21.15 8.83325 21.1945 8.69995 21.1945C8.56665 21.1945 8.43335 21.15 8.32227 21.0612C3.90565 17.5154 1.89284 14.2052 0.977526 12.0502C0.728702 11.5125 0.537641 10.9482 0.408786 10.3751C0.373239 10.2151 0.355466 10.1218 0.351023 10.0907C0.248827 9.56639 0.199951 9.02875 0.199951 8.49556C0.199951 3.81234 4.01229 0 8.69551 0C13.3787 0 17.1911 3.81234 17.2 8.49556ZM15.9914 8.49111C15.9914 4.46994 12.7167 1.19524 8.69551 1.19524C4.67434 1.19524 1.39964 4.46994 1.39964 8.49111C1.39964 8.95766 1.44407 9.41976 1.53294 9.87742C1.53294 9.89075 1.53738 9.89963 1.53738 9.90852C1.54182 9.93074 1.55071 9.99739 1.57737 10.0996C1.57737 10.104 1.57737 10.104 1.57737 10.1085C1.69289 10.6061 1.8573 11.0949 2.07057 11.557C2.07502 11.5614 2.07502 11.5703 2.07946 11.5748C2.91035 13.5431 4.7321 16.5468 8.69551 19.8215C12.6589 16.5468 14.4807 13.5431 15.3116 11.5748C15.316 11.5703 15.316 11.5614 15.3204 11.557C15.5382 11.0904 15.7026 10.6061 15.8136 10.1085C15.8136 10.104 15.8136 10.104 15.8136 10.0996C15.8359 9.99739 15.8492 9.93074 15.8536 9.90852C15.8536 9.89963 15.8581 9.89075 15.8581 9.88186C15.9469 9.42865 15.9914 8.9621 15.9914 8.49111Z"/>
<path fill-rule="evenodd" clip-rule="evenodd" d="M14.0897 8.58887C14.0897 11.5614 11.6681 13.983 8.69551 13.983C5.72295 13.983 3.30136 11.5614 3.30136 8.58887C3.30136 5.61631 5.72295 3.19472 8.69551 3.19472C11.6681 3.19472 14.0897 5.61631 14.0897 8.58887ZM12.89 8.58887C12.89 6.27836 11.006 4.39441 8.69551 4.39441C6.385 4.39441 4.50105 6.27836 4.50105 8.58887C4.50105 10.8994 6.38056 12.7833 8.69551 12.7833C11.0105 12.7833 12.89 10.8994 12.89 8.58887Z"/>
</svg>
