<svg width="22" height="18" viewBox="0 0 22 18" xmlns="http://www.w3.org/2000/svg">
<path fill-rule="evenodd" clip-rule="evenodd" d="M22 3.4448V14.8021C22 16.2861 20.7937 17.4924 19.3097 17.4924H2.69025C1.20629 17.4924 0 16.2861 0 14.8021V3.44025C0 1.95629 1.20629 0.75 2.69025 0.75H19.3143C20.7983 0.75 22.0045 1.96084 22 3.4448ZM20.7709 14.8021V3.4448C20.7709 2.63909 20.1154 1.9836 19.3097 1.9836H2.69025C1.88454 1.9836 1.22905 2.63909 1.22905 3.4448V14.8021C1.22905 15.6078 1.88454 16.2633 2.69025 16.2633H19.3143C20.12 16.2633 20.7755 15.6078 20.7755 14.8021H20.7709Z"/>
<path d="M13.8746 8.98008L19.2551 4.15492C19.5055 3.92732 19.5282 3.5404 19.3006 3.28548C19.073 3.03512 18.6861 3.01236 18.4312 3.23996L11.0114 9.89959L9.56383 8.60681C9.55928 8.60226 9.55473 8.59771 9.55473 8.59316C9.52286 8.56129 9.491 8.53398 9.45458 8.50667L3.56425 3.23541C3.30933 3.00781 2.92241 3.03057 2.69481 3.28548C2.46721 3.5404 2.48997 3.92732 2.74488 4.15492L8.18911 9.02105L2.76764 14.0966C2.52183 14.3287 2.50817 14.7156 2.74033 14.966C2.86323 15.0935 3.02711 15.1617 3.19098 15.1617C3.3412 15.1617 3.49141 15.1071 3.60977 14.9979L9.11318 9.84952L10.6062 11.1833C10.7246 11.288 10.8703 11.338 11.0159 11.338C11.1616 11.338 11.3118 11.2834 11.4256 11.1787L12.9596 9.804L18.4312 15.0024C18.5495 15.1162 18.7043 15.1708 18.8545 15.1708C19.0184 15.1708 19.1777 15.1071 19.3006 14.9797C19.5328 14.7339 19.5237 14.3424 19.2779 14.1102L13.8746 8.98008Z"/>
</svg>
