<svg width="23" height="23" viewBox="0 0 23 23" xmlns="http://www.w3.org/2000/svg">
<path fill-rule="evenodd" clip-rule="evenodd" d="M20.2977 16.2144C20.7674 16.6794 21.0138 17.2328 21.0138 17.8094C21.0138 18.3813 20.772 18.9393 20.3117 19.4183C20.1117 19.6275 19.9071 19.8275 19.7072 20.0181C19.4142 20.3018 19.1352 20.5668 18.8934 20.8598C18.8888 20.8691 18.8795 20.8737 18.8748 20.883C18.168 21.6503 17.2659 22.0362 16.1917 22.0362C16.0987 22.0362 15.9964 22.0316 15.8988 22.0269C14.3038 21.9246 12.8763 21.3248 11.8068 20.8179C9.00748 19.4648 6.55693 17.5443 4.52023 15.1124C2.84157 13.0943 1.71627 11.211 0.962968 9.17895C0.656068 8.35125 0.256167 7.08645 0.367767 5.72864C0.442167 4.88699 0.781618 4.16159 1.37682 3.56639L2.95782 1.97144C2.96247 1.96679 2.96247 1.96679 2.96712 1.96214C3.43212 1.51574 3.98082 1.27858 4.54813 1.27858C5.11543 1.27858 5.65483 1.51574 6.10588 1.96214C6.40813 2.24114 6.70108 2.53874 6.98008 2.82704C7.11958 2.97584 7.26838 3.12464 7.41253 3.26879L8.68198 4.53824C9.65849 5.51474 9.65849 6.77955 8.68198 7.75605C8.55178 7.88625 8.42158 8.0211 8.29138 8.1513C7.94728 8.50005 7.59388 8.86275 7.21258 9.2115C7.49623 9.83925 7.88683 10.4577 8.46808 11.1924C9.66779 12.6665 10.9186 13.8057 12.295 14.6799C12.4299 14.7636 12.588 14.8427 12.7554 14.9264C12.8716 14.9868 12.9925 15.0473 13.1134 15.1124L14.5828 13.6476C15.0525 13.178 15.6012 12.9315 16.1731 12.9315C16.7498 12.9315 17.2938 13.1826 17.7449 13.6523L20.2977 16.2144ZM19.4049 17.0933C19.4003 17.0886 16.8381 14.5265 16.8335 14.5218C16.6893 14.3637 16.4521 14.1824 16.1638 14.1824C15.8709 14.1824 15.6198 14.373 15.4617 14.5311L13.8714 16.1214C13.7923 16.2005 13.5505 16.4423 13.1646 16.4423C13.0111 16.4423 12.8623 16.4051 12.7042 16.326C12.6856 16.3167 12.667 16.3028 12.6484 16.2935C12.5136 16.2098 12.3555 16.1307 12.1881 16.047C12.0021 15.954 11.8068 15.8564 11.6161 15.7355C10.1235 14.7915 8.77033 13.5593 7.48693 11.9783L7.48228 11.9736C6.77548 11.0762 6.31048 10.3229 5.98033 9.52305C5.97568 9.5091 5.97103 9.49515 5.96638 9.4812C5.88268 9.21615 5.80828 8.82555 6.20818 8.42565C6.21283 8.41635 6.22213 8.4117 6.23143 8.4024C6.63598 8.0397 7.00798 7.6677 7.39858 7.2678C7.53343 7.1376 7.66363 7.00275 7.79848 6.8679C8.29138 6.375 8.29138 5.91929 7.79848 5.42639L6.52903 4.15694C6.38023 4.00349 6.23143 3.85469 6.08728 3.70589C5.80363 3.41294 5.53393 3.13859 5.25028 2.87354C5.24563 2.86889 5.24098 2.86424 5.23633 2.85959C5.08753 2.71079 4.85038 2.53409 4.55743 2.53409C4.32028 2.53409 4.07847 2.65034 3.85062 2.86424L2.26497 4.44989C1.87902 4.83584 1.66977 5.28689 1.62327 5.83094C1.55352 6.6819 1.71162 7.584 2.14407 8.74185C2.84622 10.6391 3.90642 12.4061 5.49208 14.3172C7.41253 16.6097 9.72359 18.4185 12.3555 19.6926C13.318 20.153 14.6014 20.6924 15.9825 20.7807C16.0522 20.7854 16.1266 20.7854 16.1964 20.7854C16.9218 20.7854 17.4752 20.5482 17.9448 20.046C18.2331 19.7066 18.54 19.4043 18.8423 19.116C19.0422 18.9207 19.2282 18.744 19.4096 18.5487C19.4049 18.5487 19.4049 18.5534 19.4096 18.5487C19.8839 18.0558 19.8839 17.5676 19.4049 17.0933Z"/>
<path d="M12.2392 5.24504C13.4575 5.44964 14.5643 6.02624 15.4478 6.90974C16.3313 7.79325 16.9032 8.89995 17.1125 10.1183C17.1636 10.4252 17.4287 10.6391 17.7309 10.6391C17.7681 10.6391 17.8007 10.6344 17.8379 10.6298C18.182 10.574 18.4098 10.2485 18.354 9.90435C18.1029 8.4303 17.4054 7.08645 16.3406 6.02159C15.2757 4.95674 13.9319 4.25924 12.4578 4.00814C12.1137 3.95234 11.7928 4.18019 11.7324 4.51964C11.6719 4.85909 11.8951 5.18924 12.2392 5.24504Z"/>
<path d="M22.3391 9.723C21.9252 7.2957 20.7813 5.08694 19.0236 3.32924C17.2659 1.57153 15.0571 0.427633 12.6298 0.0137818C12.2904 -0.0466683 11.9695 0.185832 11.9091 0.525283C11.8533 0.869384 12.0811 1.19023 12.4252 1.25068C14.5921 1.61804 16.5684 2.64569 18.1401 4.21274C19.7118 5.78444 20.7348 7.7607 21.1022 9.9276C21.1533 10.2345 21.4184 10.4484 21.7206 10.4484C21.7578 10.4484 21.7904 10.4438 21.8276 10.4391C22.167 10.388 22.3995 10.0625 22.3391 9.723Z"/>
</svg>
